# xmcd CD database file
#
# Track frame offsets:
#	150
#	12080
#	28502
#	42330
#	54481
#	68398
#	81098
#	95136
#	107997
#	121275
#	135602
#	149613
#	163289
#	178094
#	194029
#	207732
#	221967
#	234535
#
# Disc length: 3298 seconds
#
# Revision: 1
# Processed by: cddbd v1.5.2PL0 Copyright (c) Steve Scherf et al.
# Submitted via: CDex 1.70beta2
#
DISCID=170ce012
DTITLE=Tampa Red - The Ultimate Jazz Archive Set 10
DYEAR=1900
DGENRE=Blues
TTITLE0=(Honey) It's Tight Like That
TTITLE1=Big Fat Mama
TTITLE2=Juicy Lemon Blues
TTITLE3=Uncle Bud
TTITLE4=How Long, How Long Blues
TTITLE5=It's Tight Like That
TTITLE6=Kunjine Baby
TTITLE7=Friendless Gal Blues
TTITLE8=Death Cell Blues
TTITLE9=Have Ever Been Worried In Mind - Part 1
TTITLE10=Have Ever Been Worried In Mind - Part 2
TTITLE11=You Rascal You
TTITLE12=Boogie Woogie Dance
TTITLE13=Bumble Bee Blues
TTITLE14=Stop And Listen Blues
TTITLE15=Down In Spirit Blues
TTITLE16=Mean Old Tom Cat Blues
TTITLE17=Don't Jive It Mama
EXTD=
EXTT0=
EXTT1=
EXTT2=
EXTT3=
EXTT4=
EXTT5=
EXTT6=
EXTT7=
EXTT8=
EXTT9=
EXTT10=
EXTT11=
EXTT12=
EXTT13=
EXTT14=
EXTT15=
EXTT16=
EXTT17=
PLAYORDER=
